<?xml version="1.0" encoding="UTF-8"?><svg id="Layer_1" xmlns="http://www.w3.org/2000/svg" viewBox="0 0 190.06 214.1"><defs><style>.cls-1{stroke-width:5px;}.cls-1,.cls-2{stroke-miterlimit:10;}.cls-1,.cls-2,.cls-3{fill:none;stroke:#000;}.cls-2,.cls-3{stroke-width:4px;}.cls-3{stroke-linejoin:round;}</style></defs><path class="cls-3" d="M30.66,93.39c.02,16.91,1.73,45.62,22.89,63.66,24.79,21.14,71.98,30.62,92.64-11.18,1.15-2.32,14.86-18.83,40.68-30.11,5.55-2.43-25.91-2.54-25.91-2.54,0,0,37.92-29.42,24.04-29.42-20.7,0-22.46,8.88-42.63,13.96-24.27,6.12-25.45-2.34-40.96-6.16-6.25-1.54,13.89-35.8-3.53-53.29-14.74-14.8-40.85-10.17-50.4,1.13-3.56,4.21-16.87,13.86-16.83,53.94Z"/><circle cx="67.73" cy="66.2" r="6.68"/><path class="cls-2" d="M33.58,64.97s-25.57,2.81-30.91,21.3c17.37-.12,16.82-.12,28,0,0,0,.56-8.18,2.91-21.3Z"/><path class="cls-2" d="M83.84,110.18c-5.3-1.46-10.68-2.48-16.2-2.44-1.6,0-3.34,.15-4.54,1.22-1.21,1.08-1.54,2.83-1.73,4.45-.66,5.43,9.55,8.64,10.15,14.08,1.14,10.29,3.19,11.72,12.4,13.59,10.54,2.14,19.53,8.15,29.22,2.3,4.84-2.92,8.88-7.67,12.2-12.14,.74-1,1.4-2.13,1.44-3.37,.04-1.37-.82-2.63-2.21-2.78"/><g><polyline class="cls-2" points="110.61 173.8 110.61 197.09 94.06 197.09"/><polyline class="cls-2" points="82.69 172.21 82.69 195.5 66.13 195.5"/><line class="cls-2" x1="110.86" y1="198.12" x2="102.58" y2="213.14"/><line class="cls-2" x1="82.96" y1="196.5" x2="74.68" y2="211.52"/></g><path class="cls-1" d="M40.26,48.32s-14.87-13.82-6.6-14.46,7.31-2.23,7.31-2.23c0,0-7.05-23.52,2.16-18.12,9.22,5.4,8.64,5.4,8.64,5.4,0,0,5.84-22.89,15.95-14.62s9,12.4,9,12.4c0,0,5.56-17.8,12.87-2.23,7.31,15.58,15.29,5.6,16.87,9.22s-8.58,14.62-8.58,14.62"/></svg>