<?xml version="1.0" encoding="UTF-8"?><svg id="Layer_1" xmlns="http://www.w3.org/2000/svg" viewBox="0 0 143.12 203.62"><defs><style>.cls-1{fill:none;stroke:#000;stroke-miterlimit:10;stroke-width:4px;}</style></defs><polygon points="87.84 95.92 75.84 101.16 68.99 91.66 76.69 80.81 87.84 95.92"/><path class="cls-1" d="M127.9,98.42l-14.51,10.92-9.87-20.29-27.67,12.1-12.84-17.8-17.92,7.41-3.22-14.83-19.25,33.41-7.23-11.63C22.99,63.12,45.27,31.09,71.56,31.09s48.87,32.46,56.34,67.33Z"/><path class="cls-1" d="M141.12,124.93c0,49.86-31.14,76.68-69.56,76.68S2,174.79,2,124.93c0-12.94,2.1-26.42,5.88-39.3l14.73,23.71,19.25-33.41,3.22,14.83,17.92-7.41,12.84,17.8,27.67-12.1,9.87,20.29,23.49-17.69c2.74,11.02,4.24,22.35,4.24,33.28Z"/><path class="cls-1" d="M87.84,95.92l15.68-6.86,9.87,20.28,14.51-10.92,8.97-6.77c2.74,11.02,4.25,22.35,4.25,33.28,0,49.86-31.14,76.68-69.57,76.68S2,174.79,2,124.93c0-12.94,2.1-26.41,5.88-39.3l7.5,12.09,7.22,11.62,19.26-33.41,3.22,14.83,17.92-7.41,5.99,8.3"/><path class="cls-1" d="M52.26,36.94S41.18,8.87,64.74,2.69c17.43-4.57,2.09,15,10.58,15s22.19-9.49,23.11-2.14c.92,7.35-7.56,21.39-7.56,21.39"/><g><g><polyline class="cls-1" points="60.99 169.66 51.49 162.79 60.99 149.46"/><polyline class="cls-1" points="48.06 152.22 51.49 162.79 43.52 166.23"/></g><g><polyline class="cls-1" points="82.13 169.32 91.63 162.45 82.13 149.12"/><polyline class="cls-1" points="95.06 151.87 91.63 162.45 99.6 165.89"/></g></g><circle cx="62.59" cy="69.5" r="6.43"/><circle cx="88.78" cy="70.22" r="6.43"/></svg>