<?xml version="1.0" encoding="UTF-8"?><svg id="Layer_1" xmlns="http://www.w3.org/2000/svg" viewBox="0 0 211.62 163.02"><defs><style>.cls-1{fill:none;stroke:#000;stroke-miterlimit:10;stroke-width:4px;}</style></defs><path class="cls-1" d="M20.21,70.5C36.8,51.11-3.61,10.65,96.06,2.17c35.72-3.04,15.34,34.64,45.94,38.85,30.6,4.21,78.85,13.23,65.26,39.37-13.59,26.14-40.14,8.61-34.11,32.88s-15.74,52.21-38.69,27.94c-22.95-24.27-40.05,27.08-88.88,18.93-14.78-2.47-72.58-34.48-25.37-89.63Z"/><g><ellipse class="cls-1" cx="79.49" cy="57.1" rx="27.96" ry="22.54"/><path class="cls-1" d="M60.94,57.1s.29-12.55,13.12-13.41"/><ellipse class="cls-1" cx="131.58" cy="95.85" rx="27.96" ry="22.54"/><path class="cls-1" d="M113.04,95.85s.29-12.55,13.12-13.41"/></g><g><ellipse class="cls-1" cx="51.35" cy="113.27" rx="27.96" ry="22.54"/><path class="cls-1" d="M32.81,113.27s.29-12.55,13.12-13.41"/></g></svg>